<svg xmlns="http://www.w3.org/2000/svg" width="400" height="150" viewBox="0 0 400 150"><defs><linearGradient id="ll" x1="0" y1="0" x2="1" y2="1"><stop offset="0" stop-color="#6ee79a"/><stop offset="0.55" stop-color="#2bb673"/><stop offset="1" stop-color="#127a4d"/></linearGradient></defs><g transform="translate(78,75) scale(0.52)"><g transform="rotate(0.00)"><path d="M 56.38 20.52 A 60 60 0 0 1 -10.42 59.09" fill="none" stroke="#a8c3a1" stroke-width="7" stroke-linecap="round"/><path d="M -26.18 56.31 L -12.33 69.92 L -8.51 48.26 Z" fill="#a8c3a1"/></g><g transform="rotate(120.00)"><path d="M 56.38 20.52 A 60 60 0 0 1 -10.42 59.09" fill="none" stroke="#a8c3a1" stroke-width="7" stroke-linecap="round"/><path d="M -26.18 56.31 L -12.33 69.92 L -8.51 48.26 Z" fill="#a8c3a1"/></g><g transform="rotate(240.00)"><path d="M 56.38 20.52 A 60 60 0 0 1 -10.42 59.09" fill="none" stroke="#a8c3a1" stroke-width="7" stroke-linecap="round"/><path d="M -26.18 56.31 L -12.33 69.92 L -8.51 48.26 Z" fill="#a8c3a1"/></g><rect x="-35" y="-14" width="62" height="28" rx="5" fill="url(#ll)"/><rect x="-41" y="-20" width="82" height="40" rx="11" fill="none" stroke="#a8c3a1" stroke-width="5.5"/><rect x="45" y="-8" width="6" height="16" rx="3" fill="#a8c3a1"/><path transform="translate(-14.399999999999999,-14.399999999999999) scale(1.2)" fill="#0a0b09" d="M13.5 1 L3.5 13.5 H11 L9 23 L20.5 9.5 H13 Z"/></g><g transform="translate(150,96)"><text x="0" y="0" font-family="Fraunces, Georgia, 'Times New Roman', serif" font-size="60" font-weight="700" fill="#0a0b09">GS<tspan font-size="40" fill="#1f9d6f">.x</tspan></text><rect x="2" y="16" width="96" height="4" rx="2" fill="#2bb673"/><rect x="2" y="16" width="63.36" height="4" rx="2" fill="#6ee79a"/><rect x="108" y="16" width="23.28" height="4" rx="2" fill="#2c4a33"/></g></svg>