<svg xmlns="http://www.w3.org/2000/svg" viewBox="0 0 64 64" width="64" height="64"><defs><linearGradient id="fav" x1="0" y1="0" x2="1" y2="1"><stop offset="0" stop-color="#6ee79a"/><stop offset="0.55" stop-color="#2bb673"/><stop offset="1" stop-color="#127a4d"/></linearGradient><linearGradient id="favv" x1="0" y1="1" x2="0" y2="0"><stop offset="0" stop-color="#15795a"/><stop offset="1" stop-color="#6ee79a"/></linearGradient></defs><rect width="64" height="64" rx="14" fill="#0a0b09"/><g transform="translate(32,33) scale(0.34)"><g transform="rotate(0.00)"><path d="M 42.94 16.48 A 46 46 0 0 1 -7.20 45.43" fill="none" stroke="url(#fav)" stroke-width="8" stroke-linecap="round"/><path d="M -23.99 42.77 L -9.07 57.29 L -5.32 33.58 Z" fill="url(#fav)"/></g><g transform="rotate(120.00)"><path d="M 42.94 16.48 A 46 46 0 0 1 -7.20 45.43" fill="none" stroke="url(#fav)" stroke-width="8" stroke-linecap="round"/><path d="M -23.99 42.77 L -9.07 57.29 L -5.32 33.58 Z" fill="url(#fav)"/></g><g transform="rotate(240.00)"><path d="M 42.94 16.48 A 46 46 0 0 1 -7.20 45.43" fill="none" stroke="url(#fav)" stroke-width="8" stroke-linecap="round"/><path d="M -23.99 42.77 L -9.07 57.29 L -5.32 33.58 Z" fill="url(#fav)"/></g><rect x="-17" y="-24" width="34" height="50" rx="9" fill="none" stroke="url(#fav)" stroke-width="5"/><rect x="-7" y="-31" width="14" height="8" rx="2.5" fill="url(#fav)"/><path transform="translate(-11.5,-20) scale(1.95)" fill="url(#favv)" d="M13.5 1 L3.5 13.5 H11 L9 23 L20.5 9.5 H13 Z"/></g></svg>