<svg xmlns="http://www.w3.org/2000/svg" viewBox="0 0 64 64" width="64" height="64"><defs><linearGradient id="fav" x1="0" y1="0" x2="1" y2="1"><stop offset="0" stop-color="#6ee79a"/><stop offset="0.55" stop-color="#2bb673"/><stop offset="1" stop-color="#127a4d"/></linearGradient></defs><rect width="64" height="64" rx="14" fill="#0a0b09"/><g transform="translate(32,32) scale(0.37)"><g transform="rotate(0.00)"><path d="M 56.38 20.52 A 60 60 0 0 1 -10.42 59.09" fill="none" stroke="#a8c3a1" stroke-width="7" stroke-linecap="round"/><path d="M -26.18 56.31 L -12.33 69.92 L -8.51 48.26 Z" fill="#a8c3a1"/></g><g transform="rotate(120.00)"><path d="M 56.38 20.52 A 60 60 0 0 1 -10.42 59.09" fill="none" stroke="#a8c3a1" stroke-width="7" stroke-linecap="round"/><path d="M -26.18 56.31 L -12.33 69.92 L -8.51 48.26 Z" fill="#a8c3a1"/></g><g transform="rotate(240.00)"><path d="M 56.38 20.52 A 60 60 0 0 1 -10.42 59.09" fill="none" stroke="#a8c3a1" stroke-width="7" stroke-linecap="round"/><path d="M -26.18 56.31 L -12.33 69.92 L -8.51 48.26 Z" fill="#a8c3a1"/></g><rect x="-35" y="-14" width="62" height="28" rx="5" fill="url(#fav)"/><rect x="-41" y="-20" width="82" height="40" rx="11" fill="none" stroke="#a8c3a1" stroke-width="5.5"/><rect x="45" y="-8" width="6" height="16" rx="3" fill="#a8c3a1"/><path transform="translate(-14.399999999999999,-14.399999999999999) scale(1.2)" fill="#0a0b09" d="M13.5 1 L3.5 13.5 H11 L9 23 L20.5 9.5 H13 Z"/></g></svg>